
Format : MPEG-4
Format profile : Base Media / Version 2
Codec ID : mp42
File size : 356 MiB
Duration : 1h 27mn
Overall bit rate : 572 Kbps
Encoded date : UTC 2010-10-13 14:51:35
Tagged date : UTC 2010-10-13 14:52:14
Writing application : mp4creator 1.6.1d

Video
ID : 1
Format : AVC
Format/Info : Advanced Video Codec
Format profile : Baseline@L1.3
Format settings, CABAC : No
Format settings, ReFrames : 1 frame
Codec ID : avc1
Codec ID/Info : Advanced Video Coding
Duration : 1h 27mn
Bit rate mode : Variable
Bit rate : 507 Kbps
Width : 480 pixels
Height : 272 pixels
Display aspect ratio
: 16:9
Original display aspect ratio : 16:9
Frame rate mode : Constant
Frame rate : 24.000 fps
Resolution : 24 bits
Colorimetry : 4:2:0
Scan type : Progressive
Bits/(Pixel*Frame) : 0.162
Stream size : 316 MiB (89%)
Encoded date : UTC 2010-10-13 14:51:35
Tagged date : UTC 2010-10-13 14:52:12

Audio
ID : 2
Format : AAC
Format/Info : Advanced Audio Codec
Format version : Version 4
Format profile : LC
Format settings, SBR : Yes
Format settings, PS : No
Codec ID : 40
Duration : 1h 26mn
Bit rate mode : Variable
Bit rate : 63.2 Kbps
Maximum bit rate : 122 Kbps
Channel(s) : 2 channels
Channel positions : L R
Sampling rate : 48.0 KHz
Resolution : 16 bits
Stream size : 39.3 MiB (11%)
Encoded date : UTC 2010-10-13 14:52:14
Tagged date : UTC 2010-10-13 14:52:14

Still hurting after a tough break-up Alice (Rachel Blanchard) decides to put her house on the market in the hopes of moving on with her life. But the open house event she hosts draws unforeseen interest from a pair of psychopathic house hunters. After concealing himself in her basement, David (Brian Geraghty) emerges in the night, kills Alice's best friend, and inexplicably keeps Alice alive, hidden away in the crawl space of her own home. Alice listens through the floorboards as David and his sexually predatory partner Lila (Tricia Helfer) move in upstairs for a week of playing house.
 
http://www.imdb.com/title/tt1448762/

screen shots
 
http://img227.imageshack.us/img227/3700/openhouseh264vicemp4sna.jpg 
http://img227.imageshack.us/img227/4473/openhouseh264vicemp4snac.jpg 
http://img839.imageshack.us/img839/3700/openhouseh264vicemp4sna.jpg 
http://img839.imageshack.us/img839/8963/openhouseh264vicemp4snap.jpg
 
http://img836.imageshack.us/img836/1517/openhouseh264vicemp4thu.jpg
